<svg width="33" height="25" viewBox="0 0 33 25" fill="none" xmlns="http://www.w3.org/2000/svg">
<path d="M9.06709 9.65141L0.0203829 10.736L2.56966 18.9139L9.06709 9.65141Z" fill="white"/>
<path d="M6.51781 1.47353L0.740885 8.95577L9.42564 7.87187L6.51781 1.47353Z" fill="white"/>
<path d="M15.9258 0.0324826L7.96493 1.115L11.234 7.15687L15.9258 0.0324826Z" fill="white"/>
<path d="M18.0982 0.384105L12.3219 8.22211L22.0973 9.62652L18.0982 0.384105Z" fill="white"/>
<path d="M26.7884 2.14637L19.9079 0.380649L23.9057 8.91153L26.7884 2.14637Z" fill="white"/>
<path d="M24.9936 9.97676L28.2382 3.21091L32.9564 9.96156L24.9936 9.97676Z" fill="white"/>
<path d="M32.9598 11.7404L24.9969 11.7556L28.2688 19.2206L32.9598 11.7404Z" fill="white"/>
<path d="M21.7387 11.4061L12.3253 10.001L14.8753 18.5346L21.7387 11.4061Z" fill="white"/>
<path d="M23.9131 12.825L16.6877 19.9542L27.1843 19.9342L23.9131 12.825Z" fill="white"/>
<path d="M6.91441 19.6171L8.35066 13.5663L4.01881 19.6226L6.91441 19.6171Z" fill="white"/>
<path d="M13.7928 20.3155L10.8802 11.4268L8.36357 20.3259L13.8016 24.9405L13.7928 20.3155Z" fill="white"/>
</svg>
